<svg width="16" height="16" viewBox="0 0 16 16" fill="none" xmlns="http://www.w3.org/2000/svg">
<path d="M0 6.4C0 4.15979 0 3.03968 0.435974 2.18404C0.819467 1.43139 1.43139 0.819467 2.18404 0.435974C3.03968 0 4.15979 0 6.4 0H9.6C11.8402 0 12.9603 0 13.816 0.435974C14.5686 0.819467 15.1805 1.43139 15.564 2.18404C16 3.03968 16 4.15979 16 6.4V9.6C16 11.8402 16 12.9603 15.564 13.816C15.1805 14.5686 14.5686 15.1805 13.816 15.564C12.9603 16 11.8402 16 9.6 16H6.4C4.15979 16 3.03968 16 2.18404 15.564C1.43139 15.1805 0.819467 14.5686 0.435974 13.816C0 12.9603 0 11.8402 0 9.6V6.4Z" fill="#EBCD00"/>
<g clip-path="url(#clip0_10388_6613)">
<path fill-rule="evenodd" clip-rule="evenodd" d="M5.24013 7.20063C5.24013 5.23227 6.84565 3.64062 8.82118 3.64062C10.7967 3.64062 12.4022 5.23227 12.4022 7.20063C12.4022 7.64442 12.3204 8.07001 12.1706 8.46274C12.156 8.50092 12.1473 8.52384 12.1412 8.5409C12.1387 8.54794 12.1374 8.55209 12.1367 8.55404C12.1367 8.55425 12.1367 8.55443 12.1366 8.5546C12.1366 8.5547 12.1366 8.55448 12.1366 8.5546C12.1366 8.55496 12.1366 8.55572 12.1366 8.55622C12.1366 8.55766 12.1369 8.56056 12.1373 8.56538C12.1387 8.57925 12.1409 8.59788 12.1451 8.63197L12.3074 9.95059C12.315 10.012 12.3233 10.0794 12.3253 10.1376C12.3275 10.2017 12.3246 10.2976 12.2788 10.3977C12.221 10.524 12.1184 10.6243 11.9908 10.6791C11.8897 10.7226 11.7937 10.7233 11.7297 10.7197C11.6715 10.7163 11.6044 10.7065 11.5431 10.6975L10.2585 10.5092C10.2233 10.504 10.2041 10.5012 10.1898 10.4995C10.1848 10.499 10.1818 10.4987 10.1803 10.4986C10.1796 10.4986 10.1791 10.4986 10.1786 10.4986C10.1784 10.4986 10.1782 10.4987 10.178 10.4987C10.176 10.4993 10.1717 10.5007 10.1645 10.5032C10.1468 10.5093 10.1231 10.5182 10.0836 10.533C9.69049 10.6802 9.26485 10.7606 8.82118 10.7606C8.74041 10.7606 8.66023 10.758 8.58072 10.7527C8.21176 11.6919 7.31294 12.3606 6.25277 12.3606C5.96632 12.3606 5.69043 12.3114 5.43324 12.2207C5.39019 12.2055 5.36295 12.1959 5.34283 12.1892C5.33361 12.1862 5.3283 12.1846 5.32592 12.1839C5.32557 12.1839 5.32519 12.1838 5.32477 12.1838C5.32327 12.184 5.32014 12.1842 5.31486 12.1848C5.30052 12.1864 5.28124 12.189 5.24678 12.1937L4.04886 12.3573C3.9322 12.3732 3.81512 12.3311 3.73535 12.2445C3.65558 12.1579 3.6232 12.0378 3.64865 11.9228L3.89319 10.8181C3.90164 10.78 3.90633 10.7586 3.90938 10.7427C3.9105 10.7369 3.91107 10.7334 3.91133 10.7317C3.91135 10.7312 3.91137 10.7308 3.91139 10.7304C3.9107 10.7277 3.90912 10.7219 3.90605 10.7117C3.8993 10.6894 3.88945 10.6591 3.87376 10.6111C3.79038 10.3559 3.74541 10.0832 3.74541 9.80063C3.74541 8.75594 4.36102 7.85 5.24905 7.45365C5.24313 7.37003 5.24013 7.28565 5.24013 7.20063ZM5.96069 7.25775C6.05645 7.24644 6.15391 7.24063 6.25277 7.24063C7.64572 7.24063 8.76014 8.39504 8.76014 9.80063C8.76014 9.88122 8.75648 9.96098 8.74931 10.0397C8.77319 10.0403 8.79715 10.0406 8.82118 10.0406C9.17737 10.0406 9.51753 9.97618 9.83106 9.85875C9.83663 9.85666 9.84228 9.85454 9.84799 9.85239C9.90523 9.83085 9.96884 9.80691 10.0265 9.79478C10.0796 9.78364 10.1244 9.77885 10.1786 9.77854C10.2374 9.77821 10.2974 9.78709 10.3489 9.79473C10.3537 9.79543 10.3583 9.79612 10.3629 9.7968L11.5851 9.97595L11.4305 8.71994C11.43 8.71548 11.4294 8.71094 11.4288 8.70633C11.4226 8.65639 11.4154 8.59828 11.4167 8.54151C11.4179 8.48914 11.4232 8.44595 11.4345 8.3948C11.4469 8.3392 11.4704 8.2778 11.4916 8.2225C11.4937 8.21697 11.4958 8.21151 11.4978 8.20612C11.6169 7.894 11.6822 7.55529 11.6822 7.20063C11.6822 5.63436 10.4035 4.36063 8.82118 4.36063C7.23883 4.36063 5.96013 5.63436 5.96013 7.20063C5.96013 7.21971 5.96032 7.23876 5.96069 7.25775ZM7.98298 10.2648C8.02027 10.1168 8.04014 9.96126 8.04014 9.80063C8.04014 8.77615 7.23174 7.96063 6.25277 7.96063C5.27381 7.96063 4.46541 8.77615 4.46541 9.80063C4.46541 10.0065 4.49812 10.2037 4.55817 10.3875C4.56048 10.3946 4.56284 10.4018 4.56521 10.409C4.588 10.4784 4.61235 10.5526 4.62205 10.6144C4.63122 10.6728 4.63339 10.7171 4.62997 10.7761C4.62638 10.8383 4.61204 10.9026 4.59961 10.9583C4.59845 10.9635 4.59729 10.9687 4.59617 10.9738L4.46329 11.574L5.14935 11.4803C5.15393 11.4797 5.15859 11.4791 5.16331 11.4784C5.21365 11.4715 5.27169 11.4635 5.32713 11.4638C5.38 11.4642 5.41871 11.4681 5.47057 11.4785C5.52516 11.4894 5.59128 11.5128 5.65348 11.5348C5.65999 11.5372 5.66646 11.5394 5.67286 11.5417C5.85433 11.6058 6.04925 11.6406 6.25277 11.6406C7.07219 11.6406 7.77211 11.0693 7.97849 10.2822C7.97984 10.2764 7.98134 10.2705 7.98298 10.2648Z" fill="white"/>
</g>
<defs>
<clipPath id="clip0_10388_6613">
<rect width="9.6" height="9.6" fill="white" transform="translate(3.2002 3.2002)"/>
</clipPath>
</defs>
</svg>
